<svg width="58" height="66" viewBox="0 0 58 66" fill="none" xmlns="http://www.w3.org/2000/svg">
<path d="M28.9947 5.85092C27.4194 5.85092 26.1644 4.596 26.1644 3.02068C26.1644 1.47205 27.4461 0.19043 28.9947 0.19043C30.57 0.19043 31.7982 1.44535 31.7982 3.02068C31.7982 4.6227 30.5967 5.85092 28.9947 5.85092ZM16.2319 13.1935C14.6566 13.1935 13.4016 11.9386 13.4016 10.3633C13.4016 8.81467 14.71 7.53305 16.2319 7.53305C17.8072 7.53305 19.0621 8.78797 19.0621 10.3633C19.0621 11.9653 17.8339 13.1935 16.2319 13.1935ZM41.7308 13.1935C40.1555 13.1935 38.9005 11.9386 38.9005 10.3633C38.9005 8.81467 40.2089 7.53305 41.7308 7.53305C43.3061 7.53305 44.561 8.78797 44.561 10.3633C44.561 11.9653 43.3328 13.1935 41.7308 13.1935ZM28.9947 21.6309C26.8854 21.6309 25.1765 19.922 25.1765 17.8127C25.1765 15.7568 26.9121 14.0213 28.9947 14.0213C31.0773 14.0213 32.7861 15.7301 32.7861 17.8127C32.7861 19.9487 31.104 21.6309 28.9947 21.6309ZM3.49577 20.643C1.92045 20.643 0.665527 19.388 0.665527 17.8127C0.665527 16.2908 1.94715 15.0092 3.49577 15.0092C5.0711 15.0092 6.29932 16.2641 6.29932 17.8127C6.29932 19.4147 5.0978 20.643 3.49577 20.643ZM54.3868 20.643C52.8115 20.643 51.5565 19.388 51.5565 17.8127C51.5565 16.2908 52.8382 15.0092 54.3868 15.0092C55.9621 15.0092 57.217 16.2374 57.217 17.8127C57.217 19.4147 55.9888 20.643 54.3868 20.643ZM16.2319 29.0269C14.1492 29.0269 12.4404 27.3181 12.4404 25.2087C12.4404 23.1528 14.1759 21.3906 16.2319 21.3906C18.3412 21.3906 20.05 23.0994 20.05 25.2087C20.05 27.3448 18.3679 29.0269 16.2319 29.0269ZM41.7308 29.0269C39.6482 29.0269 37.9393 27.3181 37.9393 25.2087C37.9393 23.1528 39.6749 21.3906 41.7308 21.3906C43.8401 21.3906 45.549 23.0994 45.549 25.2087C45.549 27.3448 43.8668 29.0269 41.7308 29.0269ZM28.9947 37.0904C26.5382 37.0904 24.5357 35.0612 24.5357 32.6315C24.5357 30.2017 26.5649 28.1725 28.9947 28.1725C31.4244 28.1725 33.4537 30.175 33.4537 32.6315C33.4537 35.1146 31.4778 37.0904 28.9947 37.0904ZM3.49577 35.4617C1.92045 35.4617 0.665527 34.2068 0.665527 32.6315C0.665527 31.0828 1.94715 29.8012 3.49577 29.8012C5.0711 29.8012 6.29932 31.0561 6.29932 32.6315C6.29932 34.2068 5.0711 35.4617 3.49577 35.4617ZM54.3868 35.4617C52.8115 35.4617 51.5565 34.2068 51.5565 32.6315C51.5565 31.0828 52.8382 29.8012 54.3868 29.8012C55.9621 29.8012 57.217 31.0561 57.217 32.6315C57.217 34.2335 55.9888 35.4617 54.3868 35.4617ZM16.2319 43.8723C14.1492 43.8723 12.4404 42.1368 12.4404 40.0542C12.4404 37.9715 14.1759 36.236 16.2319 36.236C18.3412 36.236 20.05 37.9448 20.05 40.0542C20.05 42.1902 18.3679 43.8723 16.2319 43.8723ZM41.7308 43.8723C39.6482 43.8723 37.9393 42.1368 37.9393 40.0542C37.9393 37.9715 39.6749 36.236 41.7308 36.236C43.8401 36.236 45.549 37.9448 45.549 40.0542C45.549 42.1902 43.8668 43.8723 41.7308 43.8723ZM28.9947 51.2416C26.8854 51.2416 25.1765 49.5328 25.1765 47.4235C25.1765 45.3676 26.9388 43.632 28.9947 43.632C31.0773 43.632 32.7861 45.3409 32.7861 47.4235C32.7861 49.5595 31.104 51.2416 28.9947 51.2416ZM3.49577 50.2537C1.92045 50.2537 0.665527 48.9988 0.665527 47.4235C0.665527 45.9016 1.94715 44.6199 3.49577 44.6199C5.0711 44.6199 6.29932 45.8749 6.29932 47.4235C6.29932 49.0255 5.0978 50.2537 3.49577 50.2537ZM54.3868 50.2537C52.8115 50.2537 51.5565 48.9988 51.5565 47.4235C51.5565 45.9016 52.8382 44.6199 54.3868 44.6199C55.9621 44.6199 57.217 45.8749 57.217 47.4235C57.217 49.0522 55.9888 50.2537 54.3868 50.2537ZM16.2319 57.7032C14.6566 57.7032 13.4016 56.4749 13.4016 54.8996C13.4016 53.351 14.71 52.0694 16.2319 52.0694C17.8072 52.0694 19.0621 53.3243 19.0621 54.8996C19.0621 56.5016 17.8339 57.7032 16.2319 57.7032ZM41.7308 57.7032C40.1555 57.7032 38.9005 56.4749 38.9005 54.8996C38.9005 53.351 40.2089 52.0694 41.7308 52.0694C43.3061 52.0694 44.561 53.3243 44.561 54.8996C44.561 56.5016 43.3328 57.7032 41.7308 57.7032ZM28.9947 65.0725C27.4194 65.0725 26.1644 63.8176 26.1644 62.2422C26.1644 60.6936 27.4461 59.412 28.9947 59.412C30.57 59.412 31.7982 60.6669 31.7982 62.2422C31.7982 63.8442 30.5967 65.0725 28.9947 65.0725Z" fill="#F04248"/>
</svg>
