<svg width="60" height="63" viewBox="0 0 60 63" fill="none" xmlns="http://www.w3.org/2000/svg">
<rect x="7.41633" y="1.00812" width="47.1673" height="47.1673" rx="23.5837" stroke="#FFDDDB" stroke-width="0.832653"/>
<path d="M38.5501 23.7219L33.8801 21.7119L32.8401 21.2719C32.6801 21.1919 32.5401 20.9819 32.5401 20.8019V17.7419C32.5401 16.7819 31.8301 15.6419 30.9701 15.2019C30.6701 15.0519 30.3101 15.0519 30.0101 15.2019C29.1601 15.6419 28.4501 16.7919 28.4501 17.7519V20.8119C28.4501 20.9919 28.3101 21.2019 28.1501 21.2819L22.4501 23.7319C21.8201 23.9919 21.3101 24.7819 21.3101 25.4619V26.7819C21.3101 27.6319 21.9501 28.0519 22.7401 27.7119L27.7501 25.5519C28.1401 25.3819 28.4601 25.5919 28.4601 26.0219V27.1319V28.9319C28.4601 29.1619 28.3301 29.4919 28.1701 29.6519L25.8501 31.9819C25.6101 32.2219 25.5001 32.6919 25.6101 33.0319L26.0601 34.3919C26.2401 34.9819 26.9101 35.2619 27.4601 34.9819L29.8401 32.9819C30.2001 32.6719 30.7901 32.6719 31.1501 32.9819L33.5301 34.9819C34.0801 35.2519 34.7501 34.9819 34.9501 34.3919L35.4001 33.0319C35.5101 32.7019 35.4001 32.2219 35.1601 31.9819L32.8401 29.6519C32.6701 29.4919 32.5401 29.1619 32.5401 28.9319V26.0219C32.5401 25.5919 32.8501 25.3919 33.2501 25.5519L38.2601 27.7119C39.0501 28.0519 39.6901 27.6319 39.6901 26.7819V25.4619C39.6901 24.7819 39.1801 23.9919 38.5501 23.7219Z" fill="#F04248"/>
<g opacity="0.5" filter="url(#filter0_f_15_149)">
<path d="M38.0501 31.2219L33.3801 29.2119L32.3401 28.7719C32.1801 28.6919 32.0401 28.4819 32.0401 28.3019V25.2419C32.0401 24.2819 31.3301 23.1419 30.4701 22.7019C30.1701 22.5519 29.8101 22.5519 29.5101 22.7019C28.6601 23.1419 27.9501 24.2919 27.9501 25.2519V28.3119C27.9501 28.4919 27.8101 28.7019 27.6501 28.7819L21.9501 31.2319C21.3201 31.4919 20.8101 32.2819 20.8101 32.9619V34.2819C20.8101 35.1319 21.4501 35.5519 22.2401 35.2119L27.2501 33.0519C27.6401 32.8819 27.9601 33.0919 27.9601 33.5219V34.6319V36.4319C27.9601 36.6619 27.8301 36.9919 27.6701 37.1519L25.3501 39.4819C25.1101 39.7219 25.0001 40.1919 25.1101 40.5319L25.5601 41.8919C25.7401 42.4819 26.4101 42.7619 26.9601 42.4819L29.3401 40.4819C29.7001 40.1719 30.2901 40.1719 30.6501 40.4819L33.0301 42.4819C33.5801 42.7519 34.2501 42.4819 34.4501 41.8919L34.9001 40.5319C35.0101 40.2019 34.9001 39.7219 34.6601 39.4819L32.3401 37.1519C32.1701 36.9919 32.0401 36.6619 32.0401 36.4319V33.5219C32.0401 33.0919 32.3501 32.8919 32.7501 33.0519L37.7601 35.2119C38.5501 35.5519 39.1901 35.1319 39.1901 34.2819V32.9619C39.1901 32.2819 38.6801 31.4919 38.0501 31.2219Z" fill="#F04248"/>
</g>
<defs>
<filter id="filter0_f_15_149" x="-2" y="0.591797" width="64" height="64" filterUnits="userSpaceOnUse" color-interpolation-filters="sRGB">
<feFlood flood-opacity="0" result="BackgroundImageFix"/>
<feBlend mode="normal" in="SourceGraphic" in2="BackgroundImageFix" result="shape"/>
<feGaussianBlur stdDeviation="10" result="effect1_foregroundBlur_15_149"/>
</filter>
</defs>
</svg>
