<svg width="60" height="63" viewBox="0 0 60 63" fill="none" xmlns="http://www.w3.org/2000/svg">
<rect x="7.41633" y="1.00812" width="47.1673" height="47.1673" rx="23.5837" stroke="#FFDDDB" stroke-width="0.832653"/>
<path d="M30.5 15.0918C24.99 15.0918 20.5 19.5818 20.5 25.0918C20.5 30.6018 24.99 35.0918 30.5 35.0918C36.01 35.0918 40.5 30.6018 40.5 25.0918C40.5 19.5818 36.01 15.0918 30.5 15.0918ZM34.85 28.6618C34.71 28.9018 34.46 29.0318 34.2 29.0318C34.07 29.0318 33.94 29.0018 33.82 28.9218L30.72 27.0718C29.95 26.6118 29.38 25.6018 29.38 24.7118V20.6118C29.38 20.2018 29.72 19.8618 30.13 19.8618C30.54 19.8618 30.88 20.2018 30.88 20.6118V24.7118C30.88 25.0718 31.18 25.6018 31.49 25.7818L34.59 27.6318C34.95 27.8418 35.07 28.3018 34.85 28.6618Z" fill="#F04248"/>
<g opacity="0.5" filter="url(#filter0_f_15_144)">
<path d="M30 22.5918C24.49 22.5918 20 27.0818 20 32.5918C20 38.1018 24.49 42.5918 30 42.5918C35.51 42.5918 40 38.1018 40 32.5918C40 27.0818 35.51 22.5918 30 22.5918ZM34.35 36.1618C34.21 36.4018 33.96 36.5318 33.7 36.5318C33.57 36.5318 33.44 36.5018 33.32 36.4218L30.22 34.5718C29.45 34.1118 28.88 33.1018 28.88 32.2118V28.1118C28.88 27.7018 29.22 27.3618 29.63 27.3618C30.04 27.3618 30.38 27.7018 30.38 28.1118V32.2118C30.38 32.5718 30.68 33.1018 30.99 33.2818L34.09 35.1318C34.45 35.3418 34.57 35.8018 34.35 36.1618Z" fill="#F04248"/>
</g>
<defs>
<filter id="filter0_f_15_144" x="-2" y="0.591797" width="64" height="64" filterUnits="userSpaceOnUse" color-interpolation-filters="sRGB">
<feFlood flood-opacity="0" result="BackgroundImageFix"/>
<feBlend mode="normal" in="SourceGraphic" in2="BackgroundImageFix" result="shape"/>
<feGaussianBlur stdDeviation="10" result="effect1_foregroundBlur_15_144"/>
</filter>
</defs>
</svg>
