<svg width="60" height="63" viewBox="0 0 60 63" fill="none" xmlns="http://www.w3.org/2000/svg">
<rect x="7.41633" y="1.00812" width="47.1673" height="47.1673" rx="23.5837" stroke="#FFDDDB" stroke-width="0.832653"/>
<path d="M40.25 19.8217C40.25 19.6217 40.17 19.4317 40.03 19.2917L36.31 15.5717C36.02 15.2817 35.54 15.2817 35.25 15.5717C34.96 15.8617 34.96 16.3417 35.25 16.6317L37.7 19.0817H21.5C21.09 19.0817 20.75 19.4217 20.75 19.8317C20.75 20.2417 21.09 20.5717 21.5 20.5717H37.69L35.25 23.0117C34.96 23.3017 34.96 23.7817 35.25 24.0717C35.4 24.2217 35.59 24.2917 35.78 24.2917C35.97 24.2917 36.16 24.2217 36.31 24.0717L40.02 20.3617C40.09 20.2917 40.15 20.2017 40.19 20.1017C40.19 20.0917 40.19 20.0817 40.2 20.0717C40.23 19.9917 40.25 19.9117 40.25 19.8217Z" fill="#F04248"/>
<path d="M39.5 29.6118H23.31L25.75 27.1718C26.04 26.8818 26.04 26.4018 25.75 26.1118C25.46 25.8218 24.98 25.8218 24.69 26.1118L20.98 29.8218C20.91 29.8918 20.85 29.9818 20.81 30.0818C20.81 30.0918 20.81 30.1018 20.8 30.1118C20.77 30.1918 20.75 30.2818 20.75 30.3718C20.75 30.5718 20.83 30.7618 20.97 30.9018L24.69 34.6218C24.84 34.7718 25.03 34.8418 25.22 34.8418C25.41 34.8418 25.6 34.7718 25.75 34.6218C26.04 34.3318 26.04 33.8518 25.75 33.5618L23.3 31.1118H39.5C39.91 31.1118 40.25 30.7718 40.25 30.3618C40.25 29.9518 39.91 29.6118 39.5 29.6118Z" fill="#F04248"/>
<g opacity="0.5" filter="url(#filter0_f_15_154)">
<path d="M39.75 27.3217C39.75 27.1217 39.67 26.9317 39.53 26.7917L35.81 23.0717C35.52 22.7817 35.04 22.7817 34.75 23.0717C34.46 23.3617 34.46 23.8417 34.75 24.1317L37.2 26.5817H21C20.59 26.5817 20.25 26.9217 20.25 27.3317C20.25 27.7417 20.59 28.0717 21 28.0717H37.19L34.75 30.5117C34.46 30.8017 34.46 31.2817 34.75 31.5717C34.9 31.7217 35.09 31.7917 35.28 31.7917C35.47 31.7917 35.66 31.7217 35.81 31.5717L39.52 27.8617C39.59 27.7917 39.65 27.7017 39.69 27.6017C39.69 27.5917 39.69 27.5817 39.7 27.5717C39.73 27.4917 39.75 27.4117 39.75 27.3217Z" fill="#F04248"/>
<path d="M39 37.1118H22.81L25.25 34.6718C25.54 34.3818 25.54 33.9018 25.25 33.6118C24.96 33.3218 24.48 33.3218 24.19 33.6118L20.48 37.3218C20.41 37.3918 20.35 37.4818 20.31 37.5818C20.31 37.5918 20.31 37.6018 20.3 37.6118C20.27 37.6918 20.25 37.7818 20.25 37.8718C20.25 38.0718 20.33 38.2618 20.47 38.4018L24.19 42.1218C24.34 42.2718 24.53 42.3418 24.72 42.3418C24.91 42.3418 25.1 42.2718 25.25 42.1218C25.54 41.8318 25.54 41.3518 25.25 41.0618L22.8 38.6118H39C39.41 38.6118 39.75 38.2718 39.75 37.8618C39.75 37.4518 39.41 37.1118 39 37.1118Z" fill="#F04248"/>
</g>
<defs>
<filter id="filter0_f_15_154" x="-2" y="0.591797" width="64" height="64" filterUnits="userSpaceOnUse" color-interpolation-filters="sRGB">
<feFlood flood-opacity="0" result="BackgroundImageFix"/>
<feBlend mode="normal" in="SourceGraphic" in2="BackgroundImageFix" result="shape"/>
<feGaussianBlur stdDeviation="10" result="effect1_foregroundBlur_15_154"/>
</filter>
</defs>
</svg>
